<svg width="17" height="17" viewBox="0 0 17 17" fill="none" xmlns="http://www.w3.org/2000/svg">
<path d="M10.1214 15.5804C10.1214 15.7225 10.0667 15.8481 9.95746 15.9574L9.13793 16.7769C9.02866 16.8862 8.903 16.9408 8.76095 16.9408C8.6189 16.9408 8.49324 16.8862 8.38396 16.7769L0.745937 9.13891C0.636667 9.02964 0.582031 8.90398 0.582031 8.76192C0.582031 8.61987 0.636667 8.49421 0.745937 8.38494L8.38396 0.746914C8.49324 0.637643 8.6189 0.583008 8.76095 0.583008C8.903 0.583008 9.02866 0.637643 9.13793 0.746914L9.95746 1.56644C10.0667 1.67572 10.1214 1.80138 10.1214 1.94343C10.1214 2.08548 10.0667 2.21114 9.95746 2.32041L3.51595 8.76192L9.95746 15.2034C10.0667 15.3127 10.1214 15.4384 10.1214 15.5804ZM16.4154 15.5804C16.4154 15.7225 16.3607 15.8481 16.2515 15.9574L15.4319 16.7769C15.3227 16.8862 15.197 16.9408 15.0549 16.9408C14.9129 16.9408 14.7872 16.8862 14.678 16.7769L7.03993 9.13891C6.93066 9.02964 6.87603 8.90398 6.87603 8.76192C6.87603 8.61987 6.93066 8.49421 7.03993 8.38494L14.678 0.746914C14.7872 0.637643 14.9129 0.583008 15.0549 0.583008C15.197 0.583008 15.3227 0.637643 15.4319 0.746914L16.2515 1.56644C16.3607 1.67572 16.4154 1.80138 16.4154 1.94343C16.4154 2.08548 16.3607 2.21114 16.2515 2.32041L9.80995 8.76192L16.2515 15.2034C16.3607 15.3127 16.4154 15.4384 16.4154 15.5804Z" fill="#45BF7C"/>
</svg>
