<svg width="17" height="17" viewBox="0 0 17 17" fill="none" xmlns="http://www.w3.org/2000/svg">
<path d="M6.87863 15.5804C6.87863 15.7225 6.93327 15.8481 7.04254 15.9574L7.86207 16.7769C7.97134 16.8862 8.097 16.9408 8.23905 16.9408C8.3811 16.9408 8.50676 16.8862 8.61604 16.7769L16.2541 9.13891C16.3633 9.02964 16.418 8.90398 16.418 8.76192C16.418 8.61987 16.3633 8.49421 16.2541 8.38494L8.61604 0.746914C8.50676 0.637643 8.3811 0.583008 8.23905 0.583008C8.097 0.583008 7.97134 0.637643 7.86207 0.746914L7.04254 1.56644C6.93327 1.67572 6.87863 1.80138 6.87863 1.94343C6.87863 2.08548 6.93327 2.21114 7.04254 2.32041L13.484 8.76192L7.04254 15.2034C6.93327 15.3127 6.87863 15.4384 6.87863 15.5804ZM0.584634 15.5804C0.584634 15.7225 0.639269 15.8481 0.74854 15.9574L1.56807 16.7769C1.67734 16.8862 1.803 16.9408 1.94506 16.9408C2.08711 16.9408 2.21277 16.8862 2.32204 16.7769L9.96007 9.13891C10.0693 9.02964 10.124 8.90398 10.124 8.76192C10.124 8.61987 10.0693 8.49421 9.96007 8.38494L2.32204 0.746914C2.21277 0.637643 2.08711 0.583008 1.94506 0.583008C1.803 0.583008 1.67734 0.637643 1.56807 0.746914L0.74854 1.56644C0.639269 1.67572 0.584634 1.80138 0.584634 1.94343C0.584634 2.08548 0.639269 2.21114 0.74854 2.32041L7.19005 8.76192L0.74854 15.2034C0.639269 15.3127 0.584634 15.4384 0.584634 15.5804Z" fill="#45BF7C"/>
</svg>
