<svg width="12" height="13" viewBox="0 0 12 13" fill="none" xmlns="http://www.w3.org/2000/svg">
<path d="M12 6.99294V6.00706C12 5.73492 11.9117 5.50257 11.7351 5.31001C11.5584 5.11746 11.3288 5.02118 11.0462 5.02118H5.30707L7.69565 2.75674C7.90217 2.57189 8.00543 2.34082 8.00543 2.06354C8.00543 1.78626 7.90217 1.5552 7.69565 1.37035L7.08424 0.784981C6.88315 0.594994 6.63859 0.5 6.35054 0.5C6.06793 0.5 5.82065 0.594994 5.6087 0.784981L0.30163 5.8068C0.100543 5.99679 0 6.22786 0 6.5C0 6.76701 0.100543 7.00064 0.30163 7.2009L5.6087 12.2073C5.81522 12.4024 6.0625 12.5 6.35054 12.5C6.63315 12.5 6.87772 12.4024 7.08424 12.2073L7.69565 11.6374C7.90217 11.4422 8.00543 11.2086 8.00543 10.9365C8.00543 10.6643 7.90217 10.4307 7.69565 10.2356L5.30707 7.97882H11.0462C11.3288 7.97882 11.5584 7.88254 11.7351 7.68999C11.9117 7.49743 12 7.26508 12 6.99294Z" fill="white"/>
</svg>
