<svg width="12" height="13" viewBox="0 0 12 13" fill="none" xmlns="http://www.w3.org/2000/svg">
<path d="M4.81443e-07 6.00706L5.67631e-07 6.99294C5.91422e-07 7.26508 0.0883156 7.49743 0.264947 7.68999C0.441577 7.88254 0.671197 7.97882 0.953805 7.97882L6.69294 7.97882L4.30435 10.2433C4.09783 10.4281 3.99457 10.6592 3.99457 10.9365C3.99457 11.2137 4.09783 11.4448 4.30435 11.6297L4.91576 12.215C5.11685 12.405 5.36141 12.5 5.64946 12.5C5.93207 12.5 6.17935 12.405 6.39131 12.215L11.6984 7.1932C11.8995 7.00321 12 6.77214 12 6.5C12 6.23299 11.8995 5.99936 11.6984 5.7991L6.3913 0.792683C6.18478 0.597561 5.9375 0.500001 5.64946 0.500001C5.36685 0.500001 5.12228 0.597562 4.91576 0.792684L4.30435 1.36265C4.09783 1.55777 3.99457 1.7914 3.99457 2.06354C3.99457 2.33569 4.09783 2.56932 4.30435 2.76444L6.69294 5.02118L0.953804 5.02118C0.671196 5.02118 0.441576 5.11746 0.264946 5.31001C0.0883154 5.50257 4.57651e-07 5.73492 4.81443e-07 6.00706Z" fill="white"/>
</svg>
