<svg width="16" height="16" viewBox="0 0 16 16" fill="none" xmlns="http://www.w3.org/2000/svg">
<path d="M1.79617 14.8571H4.33464V12.2857H1.79617V14.8571ZM4.89874 14.8571H7.71925V12.2857H4.89874V14.8571ZM1.79617 11.7143H4.33464V8.85714H1.79617V11.7143ZM4.89874 11.7143H7.71925V8.85714H4.89874V11.7143ZM1.79617 8.28572H4.33464V5.71429H1.79617V8.28572ZM8.28335 14.8571H11.1039V12.2857H8.28335V14.8571ZM4.89874 8.28572H7.71925V5.71429H4.89874V8.28572ZM11.668 14.8571H14.2064V12.2857H11.668V14.8571ZM8.28335 11.7143H11.1039V8.85714H8.28335V11.7143ZM5.18079 4V1.42857C5.18079 1.35119 5.15288 1.28423 5.09705 1.22768C5.04123 1.17113 4.97513 1.14286 4.89874 1.14286H4.33464C4.25825 1.14286 4.19214 1.17113 4.13632 1.22768C4.0805 1.28423 4.05258 1.35119 4.05258 1.42857V4C4.05258 4.07738 4.0805 4.14435 4.13632 4.20089C4.19214 4.25744 4.25825 4.28571 4.33464 4.28571H4.89874C4.97513 4.28571 5.04123 4.25744 5.09705 4.20089C5.15288 4.14435 5.18079 4.07738 5.18079 4ZM11.668 11.7143H14.2064V8.85714H11.668V11.7143ZM8.28335 8.28572H11.1039V5.71429H8.28335V8.28572ZM11.668 8.28572H14.2064V5.71429H11.668V8.28572ZM11.95 4V1.42857C11.95 1.35119 11.9221 1.28423 11.8663 1.22768C11.8105 1.17113 11.7444 1.14286 11.668 1.14286H11.1039C11.0275 1.14286 10.9614 1.17113 10.9055 1.22768C10.8497 1.28423 10.8218 1.35119 10.8218 1.42857V4C10.8218 4.07738 10.8497 4.14435 10.9055 4.20089C10.9614 4.25744 11.0275 4.28571 11.1039 4.28571H11.668C11.7444 4.28571 11.8105 4.25744 11.8663 4.20089C11.9221 4.14435 11.95 4.07738 11.95 4ZM15.3346 3.42857V14.8571C15.3346 15.1667 15.223 15.4345 14.9997 15.6607C14.7764 15.8869 14.512 16 14.2064 16H1.79617C1.49062 16 1.2262 15.8869 1.0029 15.6607C0.779614 15.4345 0.667969 15.1667 0.667969 14.8571V3.42857C0.667969 3.11905 0.779614 2.85119 1.0029 2.625C1.2262 2.39881 1.49062 2.28571 1.79617 2.28571H2.92438V1.42857C2.92438 1.03571 3.06247 0.699405 3.33864 0.419643C3.61482 0.139881 3.94681 0 4.33464 0H4.89874C5.28656 0 5.61856 0.139881 5.89473 0.419643C6.17091 0.699405 6.30899 1.03571 6.30899 1.42857V2.28571H9.69361V1.42857C9.69361 1.03571 9.8317 0.699405 10.1079 0.419643C10.384 0.139881 10.716 0 11.1039 0H11.668C12.0558 0 12.3878 0.139881 12.664 0.419643C12.9401 0.699405 13.0782 1.03571 13.0782 1.42857V2.28571H14.2064C14.512 2.28571 14.7764 2.39881 14.9997 2.625C15.223 2.85119 15.3346 3.11905 15.3346 3.42857Z" fill="#333435"/>
<path d="M1.79617 14.8571H4.33464V12.2857H1.79617V14.8571ZM4.89874 14.8571H7.71925V12.2857H4.89874V14.8571ZM1.79617 11.7143H4.33464V8.85714H1.79617V11.7143ZM4.89874 11.7143H7.71925V8.85714H4.89874V11.7143ZM1.79617 8.28572H4.33464V5.71429H1.79617V8.28572ZM8.28335 14.8571H11.1039V12.2857H8.28335V14.8571ZM4.89874 8.28572H7.71925V5.71429H4.89874V8.28572ZM11.668 14.8571H14.2064V12.2857H11.668V14.8571ZM8.28335 11.7143H11.1039V8.85714H8.28335V11.7143ZM5.18079 4V1.42857C5.18079 1.35119 5.15288 1.28423 5.09705 1.22768C5.04123 1.17113 4.97513 1.14286 4.89874 1.14286H4.33464C4.25825 1.14286 4.19214 1.17113 4.13632 1.22768C4.0805 1.28423 4.05258 1.35119 4.05258 1.42857V4C4.05258 4.07738 4.0805 4.14435 4.13632 4.20089C4.19214 4.25744 4.25825 4.28571 4.33464 4.28571H4.89874C4.97513 4.28571 5.04123 4.25744 5.09705 4.20089C5.15288 4.14435 5.18079 4.07738 5.18079 4ZM11.668 11.7143H14.2064V8.85714H11.668V11.7143ZM8.28335 8.28572H11.1039V5.71429H8.28335V8.28572ZM11.668 8.28572H14.2064V5.71429H11.668V8.28572ZM11.95 4V1.42857C11.95 1.35119 11.9221 1.28423 11.8663 1.22768C11.8105 1.17113 11.7444 1.14286 11.668 1.14286H11.1039C11.0275 1.14286 10.9614 1.17113 10.9055 1.22768C10.8497 1.28423 10.8218 1.35119 10.8218 1.42857V4C10.8218 4.07738 10.8497 4.14435 10.9055 4.20089C10.9614 4.25744 11.0275 4.28571 11.1039 4.28571H11.668C11.7444 4.28571 11.8105 4.25744 11.8663 4.20089C11.9221 4.14435 11.95 4.07738 11.95 4ZM15.3346 3.42857V14.8571C15.3346 15.1667 15.223 15.4345 14.9997 15.6607C14.7764 15.8869 14.512 16 14.2064 16H1.79617C1.49062 16 1.2262 15.8869 1.0029 15.6607C0.779614 15.4345 0.667969 15.1667 0.667969 14.8571V3.42857C0.667969 3.11905 0.779614 2.85119 1.0029 2.625C1.2262 2.39881 1.49062 2.28571 1.79617 2.28571H2.92438V1.42857C2.92438 1.03571 3.06247 0.699405 3.33864 0.419643C3.61482 0.139881 3.94681 0 4.33464 0H4.89874C5.28656 0 5.61856 0.139881 5.89473 0.419643C6.17091 0.699405 6.30899 1.03571 6.30899 1.42857V2.28571H9.69361V1.42857C9.69361 1.03571 9.8317 0.699405 10.1079 0.419643C10.384 0.139881 10.716 0 11.1039 0H11.668C12.0558 0 12.3878 0.139881 12.664 0.419643C12.9401 0.699405 13.0782 1.03571 13.0782 1.42857V2.28571H14.2064C14.512 2.28571 14.7764 2.39881 14.9997 2.625C15.223 2.85119 15.3346 3.11905 15.3346 3.42857Z" fill="black" fill-opacity="0.2"/>
</svg>
