<svg width="41" height="40" viewBox="0 0 41 40" fill="none" xmlns="http://www.w3.org/2000/svg">
<rect x="0.5" width="40" height="40" rx="20" fill="#15294E"/>
<path d="M13.1654 12.6673H15.9154L17.7487 10.834H23.2487L25.082 12.6673H27.832C28.3183 12.6673 28.7846 12.8605 29.1284 13.2043C29.4722 13.5481 29.6654 14.0144 29.6654 14.5007V25.5006C29.6654 25.9869 29.4722 26.4532 29.1284 26.797C28.7846 27.1408 28.3183 27.334 27.832 27.334H13.1654C12.6791 27.334 12.2128 27.1408 11.869 26.797C11.5252 26.4532 11.332 25.9869 11.332 25.5006V14.5007C11.332 14.0144 11.5252 13.5481 11.869 13.2043C12.2128 12.8605 12.6791 12.6673 13.1654 12.6673ZM20.4987 15.4173C19.2831 15.4173 18.1173 15.9002 17.2578 16.7597C16.3983 17.6193 15.9154 18.7851 15.9154 20.0007C15.9154 21.2162 16.3983 22.382 17.2578 23.2416C18.1173 24.1011 19.2831 24.584 20.4987 24.584C21.7143 24.584 22.8801 24.1011 23.7396 23.2416C24.5991 22.382 25.082 21.2162 25.082 20.0007C25.082 18.7851 24.5991 17.6193 23.7396 16.7597C22.8801 15.9002 21.7143 15.4173 20.4987 15.4173ZM20.4987 17.2507C21.228 17.2507 21.9275 17.5404 22.4432 18.0561C22.959 18.5718 23.2487 19.2713 23.2487 20.0007C23.2487 20.73 22.959 21.4295 22.4432 21.9452C21.9275 22.4609 21.228 22.7506 20.4987 22.7506C19.7694 22.7506 19.0699 22.4609 18.5542 21.9452C18.0384 21.4295 17.7487 20.73 17.7487 20.0007C17.7487 19.2713 18.0384 18.5718 18.5542 18.0561C19.0699 17.5404 19.7694 17.2507 20.4987 17.2507Z" fill="white"/>
</svg>
