<svg width="31" height="28" viewBox="0 0 31 28" fill="none" xmlns="http://www.w3.org/2000/svg">
<path d="M16.84 0.666016C24.2133 0.666016 30.1867 6.66602 30.1867 13.9993C30.1867 21.3327 24.2133 27.3327 16.84 27.3327C12.16 27.3327 8.06667 24.906 5.68 21.2393L7.78667 19.5727C9.66667 22.626 13.0133 24.666 16.8533 24.666C19.6823 24.666 22.3954 23.5422 24.3958 21.5418C26.3962 19.5414 27.52 16.8283 27.52 13.9993C27.52 11.1704 26.3962 8.45726 24.3958 6.45688C22.3954 4.45649 19.6823 3.33268 16.8533 3.33268C11.4133 3.33268 6.93333 7.41268 6.28 12.666H9.96L4.97333 17.6393L0 12.666H3.58667C4.25333 5.93268 9.93333 0.666016 16.84 0.666016ZM20.7867 11.6527C21.4533 11.666 22 12.1993 22 12.8793V19.026C22 19.6927 21.4533 20.2527 20.7733 20.2527H13.4C12.72 20.2527 12.1733 19.6927 12.1733 19.026V12.8793C12.1733 12.1993 12.72 11.666 13.3867 11.6527V10.306C13.3867 8.26602 15.0533 6.61268 17.08 6.61268C19.12 6.61268 20.7867 8.26602 20.7867 10.306V11.6527ZM17.08 8.47935C16.08 8.47935 15.2533 9.29268 15.2533 10.306V11.6527H18.92V10.306C18.92 9.29268 18.0933 8.47935 17.08 8.47935Z" fill="#65696F"/>
</svg>
