<svg width="32" height="33" viewBox="0 0 32 33" fill="none" xmlns="http://www.w3.org/2000/svg">
<g clip-path="url(#clip0_1700_13743)">
<path d="M32 16.5C32 7.66344 24.8366 0.5 16 0.5C7.16344 0.5 0 7.66344 0 16.5C0 25.3366 7.16344 32.5 16 32.5C24.8366 32.5 32 25.3366 32 16.5Z" fill="#D8FFE9"/>
<path d="M15.9982 26.682C21.6215 26.682 26.18 22.1234 26.18 16.5002C26.18 10.8769 21.6215 6.31836 15.9982 6.31836C10.375 6.31836 5.81641 10.8769 5.81641 16.5002C5.81641 22.1234 10.375 26.682 15.9982 26.682Z" fill="#45BF7C"/>
<mask id="mask0_1700_13743" style="mask-type:alpha" maskUnits="userSpaceOnUse" x="5" y="6" width="22" height="21">
<path d="M15.9982 26.682C21.6215 26.682 26.18 22.1234 26.18 16.5002C26.18 10.8769 21.6215 6.31836 15.9982 6.31836C10.375 6.31836 5.81641 10.8769 5.81641 16.5002C5.81641 22.1234 10.375 26.682 15.9982 26.682Z" fill="#45BF7C"/>
</mask>
<g mask="url(#mask0_1700_13743)">
<path d="M13.8164 21.4691L19.6346 27.2873C21.0487 28.9438 20.677 33.8812 21.9376 34.0752C23.5134 34.3176 32.1194 31.7721 32.8467 31.4085C33.4285 31.1176 31.7963 26.8832 32.3619 23.0449L22.6649 13.1055L13.8164 21.4691Z" fill="#3BA36A"/>
<path fill-rule="evenodd" clip-rule="evenodd" d="M21.8199 12.1603C21.5358 11.8763 21.0753 11.8763 20.7913 12.1603L14.45 18.5016L12.2433 16.295C11.9593 16.011 11.4988 16.011 11.2148 16.295L10.4435 17.0663C10.1595 17.3503 10.1595 17.8108 10.4435 18.0948L13.0731 20.7245C13.0975 20.7594 13.1252 20.7926 13.1563 20.8238L13.9276 21.5951C14.2117 21.8791 14.6721 21.8791 14.9561 21.5951L22.5911 13.9601C22.8752 13.6761 22.8752 13.2156 22.5911 12.9316L21.8199 12.1603Z" fill="white"/>
</g>
</g>
<defs>
<clipPath id="clip0_1700_13743">
<rect width="32" height="32" fill="white" transform="translate(0 0.5)"/>
</clipPath>
</defs>
</svg>
