<svg width="65" height="64" viewBox="0 0 65 64" fill="none" xmlns="http://www.w3.org/2000/svg">
<circle cx="32.5" cy="32" r="32" fill="#BBE7CF"/>
<path d="M50.4187 23.6801C50.4187 28.982 46.1206 33.2801 40.8187 33.2801C35.5169 33.2801 31.2188 28.982 31.2188 23.6801C31.2188 18.3781 35.5169 14.0801 40.8187 14.0801C46.1206 14.0801 50.4187 18.3781 50.4187 23.6801Z" fill="#45BF7C"/>
<path d="M21.832 44.5876V33.0676H26.312L38.472 36.9076V40.7476L45.512 41.3876L47.432 44.5876L35.912 49.0676L21.832 44.5876Z" fill="#F0C395"/>
<path d="M14.1523 32.4275H21.8323V49.0675H14.1523V32.4275Z" fill="#45BF7C"/>
<path d="M44.0208 39.2533H40.6074C40.6074 37.2053 39.3274 35.3621 37.416 34.6453L26.903 30.72H13.3008V49.4933H23.5408V47.0357L35.4874 50.3466L49.1408 46.08V44.3733C49.1408 41.5402 46.8538 39.2533 44.0208 39.2533ZM20.1274 46.08H16.7141V34.1333H20.1274V46.08ZM35.4362 46.7797L23.5408 43.52V34.1333H26.2886L36.2214 37.8368C36.8016 38.0586 37.1942 38.6218 37.1942 39.2533C37.1942 39.2533 33.7808 39.168 33.2688 38.9973L29.207 37.649L28.1318 40.8917L32.1936 42.24C33.064 42.5301 33.9686 42.6666 34.8902 42.6666H44.0208C44.6864 42.6666 45.2838 43.0762 45.5568 43.6394L35.4362 46.7797Z" fill="#123522"/>
<path fill-rule="evenodd" clip-rule="evenodd" d="M40.8187 30.7201C44.7069 30.7201 47.8587 27.5682 47.8587 23.6801C47.8587 19.792 44.7069 16.6401 40.8187 16.6401C36.9306 16.6401 33.7787 19.792 33.7787 23.6801C33.7787 27.5682 36.9306 30.7201 40.8187 30.7201ZM40.8187 33.2801C46.1206 33.2801 50.4187 28.982 50.4187 23.6801C50.4187 18.3781 46.1206 14.0801 40.8187 14.0801C35.5169 14.0801 31.2188 18.3781 31.2188 23.6801C31.2188 28.982 35.5169 33.2801 40.8187 33.2801Z" fill="#123522"/>
</svg>
