<svg width="24" height="24" viewBox="0 0 24 24" fill="none" xmlns="http://www.w3.org/2000/svg">
<path d="M23.7439 12.27C23.7439 11.48 23.6739 10.73 23.5539 10H12.2539V14.51H18.7239C18.4339 15.99 17.5839 17.24 16.3239 18.09V21.09H20.1839C22.4439 19 23.7439 15.92 23.7439 12.27Z" fill="#4285F4"/>
<path d="M12.253 23.9991C15.493 23.9991 18.203 22.9191 20.183 21.0891L16.323 18.0891C15.243 18.8091 13.873 19.2491 12.253 19.2491C9.12297 19.2491 6.47297 17.1391 5.52297 14.2891H1.54297V17.3791C3.51297 21.2991 7.56297 23.9991 12.253 23.9991Z" fill="#34A853"/>
<path d="M5.52391 14.2891C5.27391 13.5691 5.14391 12.7991 5.14391 11.9991C5.14391 11.1991 5.28391 10.4291 5.52391 9.70914V6.61914H1.54391C0.723905 8.23914 0.253906 10.0591 0.253906 11.9991C0.253906 13.9391 0.723905 15.7591 1.54391 17.3791L5.52391 14.2891Z" fill="#FBBC05"/>
<path d="M12.253 4.75C14.023 4.75 15.603 5.36 16.853 6.55L20.273 3.13C18.203 1.19 15.493 0 12.253 0C7.56297 0 3.51297 2.7 1.54297 6.62L5.52297 9.71C6.47297 6.86 9.12297 4.75 12.253 4.75Z" fill="#EA4335"/>
</svg>
