<svg width="65" height="64" viewBox="0 0 65 64" fill="none" xmlns="http://www.w3.org/2000/svg">
<circle cx="32.832" cy="32" r="32" fill="#BBE7CF"/>
<path d="M40.512 34.24C38.4752 34.24 36.5218 33.431 35.0815 31.9906C33.6411 30.5503 32.832 28.5969 32.832 26.56C32.832 21.44 40.512 12.8 40.512 12.8C40.512 12.8 48.192 21.44 48.192 26.56C48.192 28.5969 47.3829 30.5503 45.9426 31.9906C44.5023 33.431 42.5489 34.24 40.512 34.24Z" fill="#45BF7C"/>
<path d="M22.1641 44.5875V33.0675H26.644L38.804 36.9075V40.7475L45.844 41.3875L47.764 44.5875L36.244 49.0675L22.1641 44.5875Z" fill="#F0C395"/>
<path d="M14.4844 32.4275H22.1644V49.0675H14.4844V32.4275Z" fill="#45BF7C"/>
<path d="M44.3528 39.2533H40.9394C40.9394 37.2053 39.6594 35.3621 37.748 34.6453L27.235 30.72H13.6328V49.4933H23.8728V47.0357L35.8194 50.3466L49.4728 46.08V44.3733C49.4728 41.5402 47.1858 39.2533 44.3528 39.2533ZM20.4595 46.08H17.0462V34.1333H20.4595V46.08ZM35.7682 46.7797L23.8728 43.52V34.1333H26.6206L36.5534 37.8368C37.1336 38.0586 37.5262 38.6218 37.5262 39.2533C37.5262 39.2533 34.1128 39.168 33.6008 38.9973L29.539 37.649L28.4638 40.8917L32.5256 42.24C33.396 42.5301 34.3006 42.6666 35.2222 42.6666H44.3528C45.0184 42.6666 45.6158 43.0762 45.8888 43.6394L35.7682 46.7797Z" fill="#123522"/>
<path fill-rule="evenodd" clip-rule="evenodd" d="M36.8917 30.1804C37.8518 31.1407 39.1541 31.68 40.512 31.68C41.87 31.68 43.1723 31.1407 44.1324 30.1804C45.0926 29.2203 45.632 27.918 45.632 26.56C45.632 25.8425 45.3394 24.7506 44.6757 23.3401C44.0357 21.9801 43.1577 20.545 42.2407 19.2078C41.6453 18.3395 41.0476 17.5328 40.512 16.8397C39.9765 17.5328 39.3787 18.3395 38.7834 19.2078C37.8664 20.545 36.9883 21.9801 36.3483 23.3401C35.6846 24.7506 35.392 25.8425 35.392 26.56C35.392 27.918 35.9314 29.2203 36.8917 30.1804ZM38.8572 14.7993C36.5998 17.6607 32.832 22.9739 32.832 26.56C32.832 28.5969 33.6411 30.5503 35.0815 31.9906C36.5218 33.431 38.4752 34.24 40.512 34.24C42.5489 34.24 44.5023 33.431 45.9426 31.9906C47.3829 30.5503 48.192 28.5969 48.192 26.56C48.192 22.9739 44.4242 17.6607 42.1668 14.7993C41.2013 13.5754 40.512 12.8 40.512 12.8C40.512 12.8 39.8228 13.5754 38.8572 14.7993Z" fill="#123522"/>
</svg>
