<svg width="33" height="32" viewBox="0 0 33 32" fill="none" xmlns="http://www.w3.org/2000/svg">
<path d="M21.4961 2.66669C17.8161 2.66669 14.8294 5.65335 14.8294 9.33335C14.8294 13.0134 17.8161 16 21.4961 16C25.1761 16 28.1628 13.0134 28.1628 9.33335C28.1628 5.65335 25.1761 2.66669 21.4961 2.66669ZM21.4961 13.3334C19.2828 13.3334 17.4961 11.5467 17.4961 9.33335C17.4961 7.12002 19.2828 5.33335 21.4961 5.33335C23.7094 5.33335 25.4961 7.12002 25.4961 9.33335C25.4961 11.5467 23.7094 13.3334 21.4961 13.3334ZM25.4961 21.3334H22.8294C22.8294 19.7334 21.8294 18.2934 20.3361 17.7334L12.1228 14.6667H1.49609V29.3334H9.49609V27.4134L18.8294 30L29.4961 26.6667V25.3334C29.4961 23.12 27.7094 21.3334 25.4961 21.3334ZM6.82943 26.6667H4.16276V17.3334H6.82943V26.6667ZM18.7894 27.2134L9.49609 24.6667V17.3334H11.6428L19.4028 20.2267C19.8561 20.4 20.1628 20.84 20.1628 21.3334C20.1628 21.3334 17.4961 21.2667 17.0961 21.1334L13.9228 20.08L13.0828 22.6134L16.2561 23.6667C16.9361 23.8934 17.6428 24 18.3628 24H25.4961C26.0161 24 26.4828 24.32 26.6961 24.76L18.7894 27.2134Z" fill="black"/>
</svg>
