<svg width="64" height="64" viewBox="0 0 64 64" fill="none" xmlns="http://www.w3.org/2000/svg">
<circle cx="32" cy="32" r="32" fill="#BBE7CF"/>
<path d="M46.078 32C46.078 39.7762 39.7741 46.08 31.998 46.08C24.2218 46.08 17.918 39.7762 17.918 32C17.918 24.2239 24.2218 17.92 31.998 17.92C39.7741 17.92 46.078 24.2239 46.078 32Z" fill="#45BF7C"/>
<path d="M31.9978 21.76C33.3558 21.76 34.658 22.2994 35.6182 23.2596C36.5784 24.2198 37.1178 25.5221 37.1178 26.88C37.1178 28.238 36.5784 29.5402 35.6182 30.5004C34.658 31.4606 33.3558 32 31.9978 32C30.6399 32 29.3376 31.4606 28.3775 30.5004C27.4172 29.5402 26.8778 28.238 26.8778 26.88C26.8778 25.5221 27.4172 24.2198 28.3775 23.2596C29.3376 22.2994 30.6399 21.76 31.9978 21.76ZM31.9978 32.8534C37.6554 32.8534 42.2378 36.8512 42.2378 39.68V42.24H21.7578V39.68C21.7578 36.8512 26.3402 32.8534 31.9978 32.8534Z" fill="#F0C395"/>
<path fill-rule="evenodd" clip-rule="evenodd" d="M28.0943 33.494C24.3744 34.7373 21.7578 37.5424 21.7578 39.68V42.24H42.2378V39.68C42.2378 37.5424 39.6212 34.7373 35.9013 33.494C34.6985 33.092 33.3802 32.8534 31.9978 32.8534C30.6154 32.8534 29.2971 33.092 28.0943 33.494ZM28.5832 30.6951C29.5195 31.5332 30.7346 32 31.9978 32C33.261 32 34.4761 31.5332 35.4125 30.6951C35.4826 30.6322 35.5512 30.5673 35.6182 30.5004C36.5784 29.5402 37.1178 28.238 37.1178 26.88C37.1178 25.5221 36.5784 24.2198 35.6182 23.2596C34.658 22.2994 33.3558 21.76 31.9978 21.76C30.6399 21.76 29.3376 22.2994 28.3775 23.2596C27.4172 24.2198 26.8778 25.5221 26.8778 26.88C26.8778 28.238 27.4172 29.5402 28.3775 30.5004C28.4444 30.5673 28.513 30.6322 28.5832 30.6951ZM39.6778 39.68C39.6778 39.6416 39.6479 39.3539 39.3071 38.8456C38.9816 38.3602 38.4557 37.8035 37.7297 37.2732C36.2733 36.2097 34.2342 35.4134 31.9978 35.4134C29.7614 35.4134 27.7224 36.2097 26.266 37.2732C25.54 37.8035 25.014 38.3602 24.6885 38.8456C24.3478 39.3539 24.3178 39.6416 24.3178 39.68H39.6778ZM33.808 25.0698C33.3279 24.5897 32.6767 24.32 31.9978 24.32C31.3189 24.32 30.6678 24.5897 30.1876 25.0698C29.7075 25.55 29.4378 26.2011 29.4378 26.88C29.4378 27.5589 29.7075 28.2101 30.1876 28.6902C30.6678 29.1703 31.3189 29.44 31.9978 29.44C32.6767 29.44 33.3279 29.1703 33.808 28.6902C34.2881 28.2101 34.5578 27.5589 34.5578 26.88C34.5578 26.2011 34.2881 25.55 33.808 25.0698Z" fill="#123522"/>
<path d="M24.3203 44.16V39.68L32.0003 38.4L39.6803 39.68V44.16H24.3203Z" fill="#F0C395"/>
<path d="M47.2727 30.2935H49.9181V33.7067H47.2727C46.5047 40.8235 40.8215 46.5067 33.7047 47.2747V49.9201H30.2915V47.2747C23.1747 46.5067 17.4915 40.8235 16.7235 33.7067H14.0781V30.2935H16.7235C17.4915 23.1766 23.1747 17.4934 30.2915 16.7254V14.0801H33.7047V16.7254C40.8215 17.4934 46.5047 23.1766 47.2727 30.2935ZM20.1709 30.2935H22.6115V33.7067H20.1709C20.5336 36.2623 21.7166 38.6311 23.5418 40.4564C25.3671 42.2815 27.7359 43.4645 30.2915 43.8273V42.2401H33.7047V43.8273C36.2604 43.4645 38.6292 42.2815 40.4544 40.4564C42.2796 38.6311 43.4626 36.2623 43.8253 33.7067H41.3847V30.2935H43.8253C43.4626 27.7378 42.2796 25.369 40.4544 23.5438C38.6292 21.7186 36.2604 20.5356 33.7047 20.1729V21.1201H30.2915V20.1729C27.7359 20.5356 25.3671 21.7186 23.5418 23.5438C21.7166 25.369 20.5336 27.7378 20.1709 30.2935Z" fill="#123522"/>
</svg>
