<svg width="65" height="64" viewBox="0 0 65 64" fill="none" xmlns="http://www.w3.org/2000/svg">
<circle cx="32.168" cy="32" r="32" fill="#BBE7CF"/>
<path d="M39.2081 33.2801L37.6305 31.899C32.0273 27.0126 28.3281 23.7795 28.3281 19.8348C28.3281 16.6017 30.9611 14.0801 34.3121 14.0801C36.2052 14.0801 38.0222 14.9276 39.2081 16.2564C40.394 14.9276 42.211 14.0801 44.1041 14.0801C47.4552 14.0801 50.0881 16.6017 50.0881 19.8348C50.0881 23.7795 46.3889 27.0126 40.7857 31.899L39.2081 33.2801Z" fill="#45BF7C"/>
<path d="M21.5 44.5875V33.0675H25.98L38.14 36.9075V40.7475L45.18 41.3875L47.1 44.5875L35.58 49.0675L21.5 44.5875Z" fill="#F0C395"/>
<path d="M13.8203 32.4275H21.5003V49.0675H13.8203V32.4275Z" fill="#45BF7C"/>
<path d="M43.6887 39.2533H40.2754C40.2754 37.2053 38.9954 35.3621 37.084 34.6453L26.5709 30.72H12.9688V49.4933H23.2087V47.0357L35.1554 50.3466L48.8088 46.08V44.3733C48.8088 41.5402 46.5218 39.2533 43.6887 39.2533ZM19.7954 46.08H16.3821V34.1333H19.7954V46.08ZM35.1042 46.7797L23.2087 43.52V34.1333H25.9565L35.8893 37.8368C36.4695 38.0586 36.8621 38.6218 36.8621 39.2533C36.8621 39.2533 33.4487 39.168 32.9368 38.9973L28.8749 37.649L27.7997 40.8917L31.8615 42.24C32.732 42.5301 33.6365 42.6666 34.5581 42.6666H43.6887C44.3543 42.6666 44.9517 43.0762 45.2248 43.6394L35.1042 46.7797Z" fill="#123522"/>
<path fill-rule="evenodd" clip-rule="evenodd" d="M37.6305 31.899L39.2081 33.2801L40.7857 31.899C46.3889 27.0126 50.0881 23.7795 50.0881 19.8348C50.0881 16.6017 47.4552 14.0801 44.1041 14.0801C42.7065 14.0801 41.3505 14.542 40.2591 15.3185C39.8722 15.5938 39.5185 15.9086 39.2081 16.2564C38.8977 15.9086 38.5441 15.5938 38.1571 15.3185C37.0658 14.542 35.7098 14.0801 34.3121 14.0801C30.9611 14.0801 28.3281 16.6017 28.3281 19.8348C28.3281 23.7795 32.0273 27.0126 37.6305 31.899ZM39.2081 29.878C42.0095 27.4347 44.1319 25.5685 45.5875 23.8558C47.0366 22.1509 47.5281 20.9323 47.5281 19.8348C47.5281 18.1119 46.1396 16.6401 44.1041 16.6401C42.9484 16.6401 41.8237 17.1704 41.1181 17.961L39.2081 20.1011L37.2981 17.961C36.5926 17.1704 35.4678 16.6401 34.3121 16.6401C32.2767 16.6401 30.8881 18.1119 30.8881 19.8348C30.8881 20.9323 31.3796 22.1509 32.8287 23.8558C34.2843 25.5685 36.4067 27.4347 39.2081 29.878Z" fill="#123522"/>
</svg>
