<svg width="24" height="25" viewBox="0 0 24 25" fill="none" xmlns="http://www.w3.org/2000/svg">
<path d="M12 0.779297C14.1771 0.779297 16.1849 1.31443 18.0234 2.3847C19.862 3.45497 21.3177 4.9071 22.3906 6.7411C23.4635 8.5751 24 10.578 24 12.7497C24 14.9214 23.4635 16.9242 22.3906 18.7582C21.3177 20.5922 19.862 22.0444 18.0234 23.1146C16.1849 24.1849 14.1771 24.72 12 24.72C9.82292 24.72 7.8151 24.1849 5.97656 23.1146C4.13802 22.0444 2.68229 20.5922 1.60938 18.7582C0.536458 16.9242 0 14.9214 0 12.7497C0 10.578 0.536458 8.5751 1.60938 6.7411C2.68229 4.9071 4.13802 3.45497 5.97656 2.3847C7.8151 1.31443 9.82292 0.779297 12 0.779297ZM18 13.6069C18.3333 13.4199 18.5 13.1341 18.5 12.7497C18.5 12.3652 18.3333 12.0795 18 11.8924L9.5 6.90476C9.17708 6.70733 8.84375 6.70214 8.5 6.88917C8.16667 7.0866 8 7.37755 8 7.76201V17.7373C8 18.1218 8.16667 18.4127 8.5 18.6102C8.66667 18.6933 8.83333 18.7349 9 18.7349C9.17708 18.7349 9.34375 18.6881 9.5 18.5946L18 13.6069Z" fill="white"/>
</svg>
