<svg width="9" height="7" viewBox="0 0 9 7" fill="none" xmlns="http://www.w3.org/2000/svg">
<path d="M3.1 3.22C3.39333 3.34 3.62 3.53333 3.78 3.8C3.95333 4.05333 4.04 4.36 4.04 4.72C4.04 5.2 3.88667 5.59333 3.58 5.9C3.27333 6.20667 2.89333 6.36 2.44 6.36C1.96 6.36 1.56667 6.20667 1.26 5.9C0.953333 5.59333 0.8 5.2 0.8 4.72C0.8 4.48 0.826667 4.24667 0.88 4.02C0.946667 3.79333 1.06667 3.45333 1.24 3L2.3 0.159999H3.9L3.1 3.22ZM7.34 3.22C7.63333 3.34 7.86 3.53333 8.02 3.8C8.19333 4.05333 8.28 4.36 8.28 4.72C8.28 5.2 8.12667 5.59333 7.82 5.9C7.51333 6.20667 7.13333 6.36 6.68 6.36C6.2 6.36 5.80667 6.20667 5.5 5.9C5.19333 5.59333 5.04 5.2 5.04 4.72C5.04 4.48 5.06667 4.24667 5.12 4.02C5.18667 3.79333 5.30667 3.45333 5.48 3L6.54 0.159999H8.14L7.34 3.22Z" fill="#FFEE48"/>
</svg>
