<svg width="28" height="28" viewBox="0 0 28 28" fill="none" xmlns="http://www.w3.org/2000/svg">
<path fill-rule="evenodd" clip-rule="evenodd" d="M18.0013 3.33268H10.0013C9.26493 3.33268 8.66797 3.92964 8.66797 4.66602C8.66797 5.40239 9.26493 5.99935 10.0013 5.99935H18.0013C18.7377 5.99935 19.3346 5.40239 19.3346 4.66602C19.3346 3.92964 18.7377 3.33268 18.0013 3.33268ZM10.0013 0.666016C7.79217 0.666016 6.0013 2.45688 6.0013 4.66602C6.0013 6.87515 7.79217 8.66602 10.0013 8.66602H18.0013C20.2105 8.66602 22.0013 6.87515 22.0013 4.66602C22.0013 2.45688 20.2105 0.666016 18.0013 0.666016H10.0013ZM6.5036 6.60872C2.98102 9.86563 0.667969 14.9579 0.667969 19.0832C0.667969 25.7107 6.6375 27.3332 14.0013 27.3332C21.365 27.3332 27.3346 25.7107 27.3346 19.0832C27.3346 14.9579 25.0216 9.86563 21.499 6.60872C21.0544 7.4079 20.3437 8.03875 19.4868 8.38171C20.128 8.95026 20.744 9.6121 21.3228 10.3579C23.4472 13.0955 24.668 16.4727 24.668 19.0832C24.668 20.328 24.3924 21.1655 24.0228 21.7592C23.6512 22.3566 23.0776 22.8783 22.2152 23.3193C20.3896 24.2531 17.5896 24.6665 14.0013 24.6665C10.4131 24.6665 7.61302 24.2531 5.78749 23.3193C4.92498 22.8783 4.35149 22.3566 3.97977 21.7592C3.61025 21.1655 3.33464 20.328 3.33464 19.0832C3.33464 16.4727 4.5554 13.0955 6.67989 10.3579C7.25869 9.6121 7.87465 8.95026 8.51589 8.38171C7.65893 8.03875 6.94829 7.40788 6.5036 6.60872ZM9.66797 13.9993C9.66797 13.8152 9.81721 13.666 10.0013 13.666H11.3346C11.5188 13.666 11.668 13.8152 11.668 13.9993V15.3327C11.668 15.5168 11.5188 15.666 11.3346 15.666H9.66797V13.9993ZM7.66797 13.9993V16.6652V19.9993C7.66797 20.5516 8.11569 20.9993 8.66797 20.9993C9.22025 20.9993 9.66797 20.5516 9.66797 19.9993V18.4323L10.3436 18.8376C10.7517 19.0826 11.0014 19.5236 11.0014 19.9995C11.0014 20.5517 11.4492 20.9995 12.0014 20.9995C12.5537 20.9995 13.0014 20.5517 13.0014 19.9995C13.0014 19.0752 12.621 18.204 11.9693 17.5787C12.9496 17.3021 13.668 16.4013 13.668 15.3327V13.9993C13.668 12.7107 12.6233 11.666 11.3346 11.666H10.0013C8.71264 11.666 7.66797 12.7107 7.66797 13.9993ZM16.3346 13.9993C16.3346 13.8152 16.4838 13.666 16.668 13.666H18.0013C18.1854 13.666 18.3346 13.8152 18.3346 13.9993V15.3327C18.3346 15.5168 18.1854 15.666 18.0013 15.666H16.3346V13.9993ZM18.0013 17.666H16.3346V19.9993C16.3346 20.5516 15.8869 20.9993 15.3346 20.9993C14.7824 20.9993 14.3346 20.5516 14.3346 19.9993V13.9993C14.3346 12.7107 15.3793 11.666 16.668 11.666H18.0013C19.29 11.666 20.3346 12.7107 20.3346 13.9993V15.3327C20.3346 16.6213 19.29 17.666 18.0013 17.666Z" fill="#45BF7C"/>
</svg>
