<svg width="32" height="32" viewBox="0 0 32 32" fill="none" xmlns="http://www.w3.org/2000/svg">
<path fill-rule="evenodd" clip-rule="evenodd" d="M10.1163 5.17777H17.6458C18.3388 5.17777 18.9007 5.73962 18.9007 6.43267C18.9007 7.12573 18.3388 7.68758 17.6458 7.68758H10.1163C9.42329 7.68758 8.86144 7.12573 8.86144 6.43267C8.86144 5.73962 9.42329 5.17777 10.1163 5.17777ZM6.35164 6.43267C6.35164 4.35349 8.03716 2.66797 10.1163 2.66797H17.6458C19.725 2.66797 21.4105 4.35349 21.4105 6.43267C21.4105 8.51186 19.725 10.1974 17.6458 10.1974H10.1163C8.03716 10.1974 6.35164 8.51186 6.35164 6.43267ZM1.33203 20.0018C1.33203 16.1191 3.50902 11.3264 6.82439 8.2611C7.24292 9.01326 7.91176 9.60701 8.71831 9.9298C8.11479 10.4649 7.53506 11.0878 6.99031 11.7898C4.99079 14.3663 3.84184 17.5448 3.84184 20.0018C3.84184 21.1734 4.10124 21.9616 4.44902 22.5204C4.79887 23.0826 5.33863 23.5736 6.1504 23.9888C7.86855 24.8676 10.5039 25.2567 13.8811 25.2567C15.1661 25.2567 16.3438 25.2004 17.4044 25.0821C17.5211 25.9464 17.7759 26.7668 18.1457 27.5206C16.8143 27.6952 15.3783 27.7665 13.8811 27.7665C6.95042 27.7665 1.33203 26.2394 1.33203 20.0018ZM25.7743 16.0133C24.8927 13.1829 23.1743 10.329 20.9377 8.2611C20.5192 9.01327 19.8504 9.60701 19.0438 9.9298C19.6473 10.4649 20.2271 11.0878 20.7718 11.7898C21.8518 13.1814 22.6836 14.7486 23.2203 16.283C23.893 16.0993 24.6011 16.0013 25.332 16.0013C25.4804 16.0013 25.6279 16.0053 25.7743 16.0133ZM10.1163 14.9033C9.94308 14.9033 9.80262 15.0437 9.80262 15.217V16.7856H11.3712C11.5445 16.7856 11.685 16.6452 11.685 16.4719V15.217C11.685 15.0437 11.5445 14.9033 11.3712 14.9033H10.1163ZM7.92027 17.726V15.217C7.92027 14.0041 8.90348 13.0209 10.1163 13.0209H11.3712C12.5841 13.0209 13.5673 14.0041 13.5673 15.217V16.4719C13.5673 17.4777 12.8912 18.3255 11.9686 18.5858C12.582 19.1743 12.94 19.9943 12.94 20.8642C12.94 21.384 12.5186 21.8053 11.9988 21.8053C11.479 21.8053 11.0577 21.384 11.0577 20.8642C11.0577 20.4163 10.8226 20.0012 10.4385 19.7707L9.80262 19.3892V20.864C9.80262 21.3838 9.38124 21.8052 8.86144 21.8052C8.34165 21.8052 7.92027 21.3838 7.92027 20.864V17.726ZM16.3909 14.9033C16.2176 14.9033 16.0771 15.0437 16.0771 15.217V16.7856H17.6458C17.8191 16.7856 17.9595 16.6452 17.9595 16.4719V15.217C17.9595 15.0437 17.8191 14.9033 17.6458 14.9033H16.3909ZM16.0771 18.668H17.6458C18.8586 18.668 19.8418 17.6848 19.8418 16.4719V15.217C19.8418 14.0041 18.8586 13.0209 17.6458 13.0209H16.3909C15.178 13.0209 14.1948 14.0041 14.1948 15.217V20.864C14.1948 21.3838 14.6162 21.8052 15.136 21.8052C15.6557 21.8052 16.0771 21.3838 16.0771 20.864V18.668Z" fill="#65696F"/>
<path d="M26.2996 24.216H31.9974V18.5204C31.9885 17.2595 31.2518 16.9563 30.3607 17.8483L29.0785 19.1348C27.9488 18.2472 26.5531 17.7659 25.1163 17.7683C23.3941 17.7683 21.773 18.4393 20.5563 19.658C19.9542 20.2542 19.4769 20.9643 19.152 21.7468C18.8271 22.5294 18.6613 23.3688 18.6641 24.216C18.6641 25.9413 19.3352 27.5621 20.5541 28.7785C21.1517 29.3796 21.8627 29.8562 22.6458 30.1807C23.4289 30.5053 24.2686 30.6713 25.1163 30.6693C26.8385 30.6693 28.4596 29.9972 29.6785 28.7774C30.0074 28.4474 30.2985 28.0875 30.5452 27.7054C30.7301 27.4175 30.7931 27.068 30.7202 26.7337C30.6474 26.3995 30.4448 26.1078 30.1568 25.9229C29.8689 25.738 29.5194 25.6751 29.185 25.7479C28.8507 25.8207 28.559 26.0233 28.3741 26.3112C28.2263 26.5411 28.0496 26.7555 27.8541 26.9555C27.4952 27.3158 27.0685 27.6015 26.5986 27.7959C26.1287 27.9904 25.6249 28.0899 25.1163 28.0886C24.6077 28.0902 24.1038 27.9909 23.6338 27.7964C23.1639 27.6019 22.7372 27.3161 22.3785 26.9555C22.0181 26.5965 21.7323 26.1697 21.5378 25.6997C21.3433 25.2297 21.2438 24.7258 21.2452 24.2171C21.2452 23.184 21.6474 22.212 22.3785 21.4832C22.7373 21.1227 23.164 20.8369 23.6339 20.6422C24.1038 20.4476 24.6077 20.3479 25.1163 20.349C25.8807 20.349 26.6119 20.5723 27.2374 20.9844L25.6285 22.5963C24.7363 23.4873 25.0396 24.216 26.2996 24.216Z" fill="#65696F"/>
</svg>
