<svg width="16" height="16" viewBox="0 0 16 16" fill="none" xmlns="http://www.w3.org/2000/svg">
<path d="M13.5982 11.9554C13.4673 11.0327 13.2068 10.2664 12.817 9.65625C12.4271 9.04613 11.878 8.69345 11.1696 8.59822C10.7708 9.03869 10.2961 9.38244 9.74554 9.62947C9.19494 9.87649 8.6131 10 8 10C7.38691 10 6.80506 9.87649 6.25446 9.62947C5.70387 9.38244 5.22917 9.03869 4.83036 8.59822C4.12202 8.69345 3.57292 9.04613 3.18304 9.65625C2.79315 10.2664 2.53274 11.0327 2.40179 11.9554C3.03274 12.8482 3.83929 13.5551 4.82143 14.0759C5.80357 14.5967 6.8631 14.8571 8 14.8571C9.1369 14.8571 10.1964 14.5967 11.1786 14.0759C12.1607 13.5551 12.9673 12.8482 13.5982 11.9554ZM11.4286 5.71429C11.4286 4.76786 11.0938 3.95982 10.4241 3.29018C9.75447 2.62054 8.94643 2.28571 8 2.28571C7.05357 2.28571 6.24554 2.62054 5.57589 3.29018C4.90625 3.95982 4.57143 4.76786 4.57143 5.71429C4.57143 6.66071 4.90625 7.46875 5.57589 8.13839C6.24554 8.80804 7.05357 9.14286 8 9.14286C8.94643 9.14286 9.75447 8.80804 10.4241 8.13839C11.0938 7.46875 11.4286 6.66071 11.4286 5.71429ZM16 8C16 9.08333 15.7887 10.1176 15.3661 11.1027C14.9435 12.0878 14.3765 12.939 13.6652 13.6562C12.9539 14.3735 12.1042 14.9435 11.1161 15.3661C10.128 15.7887 9.08929 16 8 16C6.91667 16 5.88095 15.7887 4.89286 15.3661C3.90476 14.9435 3.05357 14.375 2.33929 13.6607C1.625 12.9464 1.05655 12.0952 0.633929 11.1071C0.21131 10.119 0 9.08333 0 8C0 6.91667 0.21131 5.88095 0.633929 4.89286C1.05655 3.90476 1.625 3.05357 2.33929 2.33929C3.05357 1.625 3.90476 1.05655 4.89286 0.633929C5.88095 0.21131 6.91667 0 8 0C9.08333 0 10.119 0.21131 11.1071 0.633929C12.0952 1.05655 12.9464 1.625 13.6607 2.33929C14.375 3.05357 14.9435 3.90476 15.3661 4.89286C15.7887 5.88095 16 6.91667 16 8Z" fill="#333435"/>
<path d="M13.5982 11.9554C13.4673 11.0327 13.2068 10.2664 12.817 9.65625C12.4271 9.04613 11.878 8.69345 11.1696 8.59822C10.7708 9.03869 10.2961 9.38244 9.74554 9.62947C9.19494 9.87649 8.6131 10 8 10C7.38691 10 6.80506 9.87649 6.25446 9.62947C5.70387 9.38244 5.22917 9.03869 4.83036 8.59822C4.12202 8.69345 3.57292 9.04613 3.18304 9.65625C2.79315 10.2664 2.53274 11.0327 2.40179 11.9554C3.03274 12.8482 3.83929 13.5551 4.82143 14.0759C5.80357 14.5967 6.8631 14.8571 8 14.8571C9.1369 14.8571 10.1964 14.5967 11.1786 14.0759C12.1607 13.5551 12.9673 12.8482 13.5982 11.9554ZM11.4286 5.71429C11.4286 4.76786 11.0938 3.95982 10.4241 3.29018C9.75447 2.62054 8.94643 2.28571 8 2.28571C7.05357 2.28571 6.24554 2.62054 5.57589 3.29018C4.90625 3.95982 4.57143 4.76786 4.57143 5.71429C4.57143 6.66071 4.90625 7.46875 5.57589 8.13839C6.24554 8.80804 7.05357 9.14286 8 9.14286C8.94643 9.14286 9.75447 8.80804 10.4241 8.13839C11.0938 7.46875 11.4286 6.66071 11.4286 5.71429ZM16 8C16 9.08333 15.7887 10.1176 15.3661 11.1027C14.9435 12.0878 14.3765 12.939 13.6652 13.6562C12.9539 14.3735 12.1042 14.9435 11.1161 15.3661C10.128 15.7887 9.08929 16 8 16C6.91667 16 5.88095 15.7887 4.89286 15.3661C3.90476 14.9435 3.05357 14.375 2.33929 13.6607C1.625 12.9464 1.05655 12.0952 0.633929 11.1071C0.21131 10.119 0 9.08333 0 8C0 6.91667 0.21131 5.88095 0.633929 4.89286C1.05655 3.90476 1.625 3.05357 2.33929 2.33929C3.05357 1.625 3.90476 1.05655 4.89286 0.633929C5.88095 0.21131 6.91667 0 8 0C9.08333 0 10.119 0.21131 11.1071 0.633929C12.0952 1.05655 12.9464 1.625 13.6607 2.33929C14.375 3.05357 14.9435 3.90476 15.3661 4.89286C15.7887 5.88095 16 6.91667 16 8Z" fill="black" fill-opacity="0.2"/>
</svg>
