<svg width="64" height="64" viewBox="0 0 64 64" fill="none" xmlns="http://www.w3.org/2000/svg">
<path d="M0 32C0 14.3269 14.3269 0 32 0C49.6731 0 64 14.3269 64 32C64 49.6731 49.6731 64 32 64C14.3269 64 0 49.6731 0 32Z" fill="#45BF7C"/>
<path d="M36.5208 33.56C36.7014 33.56 37.3785 33.8534 38.5521 34.44C39.7257 35.0267 40.3472 35.38 40.4167 35.5C40.4444 35.5667 40.4583 35.6667 40.4583 35.8C40.4583 36.24 40.3403 36.7467 40.1042 37.32C39.8819 37.84 39.3889 38.2767 38.625 38.63C37.8611 38.9834 37.1528 39.16 36.5 39.16C35.7083 39.16 34.3889 38.7467 32.5417 37.92C31.1806 37.32 30 36.5334 29 35.56C28 34.5867 26.9722 33.3534 25.9167 31.86C24.9167 30.4334 24.4236 29.14 24.4375 27.98V27.82C24.4792 26.6067 24.9931 25.5534 25.9792 24.66C26.3125 24.3667 26.6736 24.22 27.0625 24.22C27.1458 24.22 27.2708 24.23 27.4375 24.25C27.6042 24.27 27.7361 24.28 27.8333 24.28C28.0972 24.28 28.2812 24.3234 28.3854 24.41C28.4896 24.4967 28.5972 24.68 28.7083 24.96C28.8194 25.2267 29.0486 25.8134 29.3958 26.72C29.7431 27.6267 29.9167 28.1267 29.9167 28.22C29.9167 28.5 29.6771 28.8834 29.1979 29.37C28.7188 29.8567 28.4792 30.1667 28.4792 30.3C28.4792 30.3934 28.5139 30.4934 28.5833 30.6C29.0556 31.5734 29.7639 32.4867 30.7083 33.34C31.4861 34.0467 32.5347 34.72 33.8542 35.36C34.0208 35.4534 34.1736 35.5 34.3125 35.5C34.5208 35.5 34.8958 35.1767 35.4375 34.53C35.9792 33.8834 36.3403 33.56 36.5208 33.56ZM32.2917 44.16C34.0556 44.16 35.7465 43.8267 37.3646 43.16C38.9826 42.4934 40.375 41.6 41.5417 40.48C42.7083 39.36 43.6389 38.0234 44.3333 36.47C45.0278 34.9167 45.375 33.2934 45.375 31.6C45.375 29.9067 45.0278 28.2834 44.3333 26.73C43.6389 25.1767 42.7083 23.84 41.5417 22.72C40.375 21.6 38.9826 20.7067 37.3646 20.04C35.7465 19.3734 34.0556 19.04 32.2917 19.04C30.5278 19.04 28.8368 19.3734 27.2188 20.04C25.6007 20.7067 24.2083 21.6 23.0417 22.72C21.875 23.84 20.9444 25.1767 20.25 26.73C19.5556 28.2834 19.2083 29.9067 19.2083 31.6C19.2083 34.3067 20.0417 36.76 21.7083 38.96L20.0625 43.62L25.1042 42.08C27.2986 43.4667 29.6944 44.16 32.2917 44.16ZM32.2917 16.52C34.4167 16.52 36.4479 16.92 38.3854 17.72C40.3229 18.52 41.9931 19.5934 43.3958 20.94C44.7986 22.2867 45.9167 23.89 46.75 25.75C47.5833 27.61 48 29.56 48 31.6C48 33.64 47.5833 35.59 46.75 37.45C45.9167 39.31 44.7986 40.9134 43.3958 42.26C41.9931 43.6067 40.3229 44.68 38.3854 45.48C36.4479 46.28 34.4167 46.68 32.2917 46.68C29.5833 46.68 27.0486 46.0534 24.6875 44.8L16 47.48L18.8333 39.38C17.3333 37.0067 16.5833 34.4134 16.5833 31.6C16.5833 29.56 17 27.61 17.8333 25.75C18.6667 23.89 19.7847 22.2867 21.1875 20.94C22.5903 19.5934 24.2604 18.52 26.1979 17.72C28.1354 16.92 30.1667 16.52 32.2917 16.52Z" fill="white"/>
</svg>
