<svg width="32" height="32" viewBox="0 0 32 32" fill="none" xmlns="http://www.w3.org/2000/svg">
<path fill-rule="evenodd" clip-rule="evenodd" d="M12.6654 26.6667C15.2427 26.6667 17.332 24.5774 17.332 22C17.332 19.4227 15.2427 17.3334 12.6654 17.3334C10.088 17.3334 7.9987 19.4227 7.9987 22C7.9987 24.5774 10.088 26.6667 12.6654 26.6667ZM12.6654 29.3334C16.7155 29.3334 19.9987 26.0502 19.9987 22C19.9987 17.9499 16.7155 14.6667 12.6654 14.6667C8.61527 14.6667 5.33203 17.9499 5.33203 22C5.33203 26.0502 8.61527 29.3334 12.6654 29.3334Z" fill="black"/>
<path fill-rule="evenodd" clip-rule="evenodd" d="M22.6667 30.6667H4V28H22.6667V30.6667Z" fill="black"/>
<path d="M5.33203 11.3334H7.9987C7.9987 12.9334 8.9987 14.3734 10.492 14.9334L18.7054 18H29.332V3.33335H21.332V5.25335L11.9987 2.66669L1.33203 6.00002V7.33335C1.33203 9.54669 3.1187 11.3334 5.33203 11.3334ZM23.9987 6.00002H26.6654V15.3334H23.9987V6.00002ZM12.0387 5.45335L21.332 8.00002V15.3334H19.1854L11.4254 12.44C10.972 12.2667 10.6654 11.8267 10.6654 11.3334C10.6654 11.3334 13.332 11.4 13.732 11.5334L16.9054 12.5867L17.7454 10.0534L14.572 9.00002C13.892 8.77335 13.1854 8.66669 12.4654 8.66669H5.33203C4.81203 8.66669 4.34537 8.34669 4.13203 7.90669L12.0387 5.45335Z" fill="black"/>
</svg>
