<svg width="28" height="28" viewBox="0 0 28 28" fill="none" xmlns="http://www.w3.org/2000/svg">
<path fill-rule="evenodd" clip-rule="evenodd" d="M17.8333 3.33329H9.83333C9.09696 3.33329 8.5 3.93025 8.5 4.66663C8.5 5.403 9.09696 5.99996 9.83333 5.99996H17.8333C18.5697 5.99996 19.1667 5.403 19.1667 4.66663C19.1667 3.93025 18.5697 3.33329 17.8333 3.33329ZM9.83333 0.666626C7.6242 0.666626 5.83333 2.45749 5.83333 4.66663C5.83333 6.87576 7.6242 8.66663 9.83333 8.66663H17.8333C20.0425 8.66663 21.8333 6.87576 21.8333 4.66663C21.8333 2.45749 20.0425 0.666626 17.8333 0.666626H9.83333ZM6.33563 6.60933C2.81305 9.86624 0.5 14.9585 0.5 19.0838C0.5 25.7113 6.46953 27.3338 13.8333 27.3338C21.1971 27.3338 27.1667 25.7113 27.1667 19.0838C27.1667 14.9585 24.8536 9.86624 21.3311 6.60933C20.8864 7.40851 20.1757 8.03936 19.3188 8.38232C19.96 8.95087 20.576 9.61271 21.1548 10.3585C23.2792 13.0961 24.5 16.4733 24.5 19.0838C24.5 20.3286 24.2244 21.1661 23.8548 21.7598C23.4832 22.3572 22.9096 22.8789 22.0472 23.32C20.2216 24.2537 17.4216 24.6672 13.8333 24.6672C10.2451 24.6672 7.44505 24.2537 5.61952 23.32C4.75701 22.8789 4.18352 22.3572 3.8118 21.7598C3.44228 21.1661 3.16667 20.3286 3.16667 19.0838C3.16667 16.4733 4.38743 13.0961 6.51192 10.3585C7.09072 9.61271 7.70668 8.95087 8.34792 8.38232C7.49096 8.03936 6.78032 7.40849 6.33563 6.60933ZM9.5 14C9.5 13.8158 9.64924 13.6666 9.83333 13.6666H11.1667C11.3508 13.6666 11.5 13.8158 11.5 14V15.3333C11.5 15.5174 11.3508 15.6666 11.1667 15.6666H9.5V14ZM7.5 14V16.6658V20C7.5 20.5522 7.94772 21 8.5 21C9.05228 21 9.5 20.5522 9.5 20V18.4329L10.1757 18.8382C10.5838 19.0832 10.8335 19.5242 10.8335 20.0001C10.8335 20.5524 11.2812 21.0001 11.8335 21.0001C12.3857 21.0001 12.8335 20.5524 12.8335 20.0001C12.8335 19.0758 12.4531 18.2046 11.8013 17.5793C12.7816 17.3028 13.5 16.402 13.5 15.3333V14C13.5 12.7113 12.4553 11.6666 11.1667 11.6666H9.83333C8.54467 11.6666 7.5 12.7113 7.5 14ZM16.1667 14C16.1667 13.8158 16.3159 13.6666 16.5 13.6666H17.8333C18.0175 13.6666 18.1667 13.8158 18.1667 14V15.3333C18.1667 15.5174 18.0175 15.6666 17.8333 15.6666H16.1667V14ZM17.8333 17.6666H16.1667V20C16.1667 20.5522 15.7189 21 15.1667 21C14.6144 21 14.1667 20.5522 14.1667 20V14C14.1667 12.7113 15.2113 11.6666 16.5 11.6666H17.8333C19.122 11.6666 20.1667 12.7113 20.1667 14V15.3333C20.1667 16.622 19.122 17.6666 17.8333 17.6666Z" fill="black"/>
</svg>
